<svg xmlns="http://www.w3.org/2000/svg" viewBox="0 0 1777.1 756" width="1777.1" height="756" style="--bg:#1a1b26;--fg:#a9b1d6;--line:#3d59a1;--accent:#7aa2f7;--muted:#565f89;background:var(--bg)">
<style>
  @import url('https://fonts.googleapis.com/css2?family=Inter:wght@400;500;600;700&amp;display=swap');
  text { font-family: 'Inter', system-ui, sans-serif; }
  svg {
    /* Derived from --bg and --fg (overridable via --line, --accent, etc.) */
    --_text:          var(--fg);
    --_text-sec:      var(--muted, color-mix(in srgb, var(--fg) 60%, var(--bg)));
    --_text-muted:    var(--muted, color-mix(in srgb, var(--fg) 40%, var(--bg)));
    --_text-faint:    color-mix(in srgb, var(--fg) 25%, var(--bg));
    --_line:          var(--line, color-mix(in srgb, var(--fg) 30%, var(--bg)));
    --_arrow:         var(--accent, color-mix(in srgb, var(--fg) 50%, var(--bg)));
    --_node-fill:     var(--surface, color-mix(in srgb, var(--fg) 3%, var(--bg)));
    --_node-stroke:   var(--border, color-mix(in srgb, var(--fg) 20%, var(--bg)));
    --_group-fill:    var(--bg);
    --_group-hdr:     color-mix(in srgb, var(--fg) 5%, var(--bg));
    --_inner-stroke:  color-mix(in srgb, var(--fg) 12%, var(--bg));
    --_key-badge:     color-mix(in srgb, var(--fg) 10%, var(--bg));
  }
</style>
<defs>
  <marker id="arrowhead" markerWidth="8" markerHeight="4.8" refX="8" refY="2.4" orient="auto">
    <polygon points="0 0, 8 2.4, 0 4.8" fill="var(--_arrow)" />
  </marker>
  <marker id="arrowhead-start" markerWidth="8" markerHeight="4.8" refX="0" refY="2.4" orient="auto-start-reverse">
    <polygon points="8 0, 0 2.4, 8 4.8" fill="var(--_arrow)" />
  </marker>
</defs>
<rect x="40" y="40" width="1697.1" height="676" rx="0" ry="0" fill="var(--_group-fill)" stroke="var(--_node-stroke)" stroke-width="1" />
<rect x="40" y="40" width="1697.1" height="28" rx="0" ry="0" fill="var(--_group-hdr)" stroke="var(--_node-stroke)" stroke-width="1" />
<text x="52" y="54" dy="0.35em" font-size="12" font-weight="600" fill="var(--_text-sec)">&quot;🏭 WAREHOUSE: Main Warehouse - LA&quot;</text>
<rect x="60" y="504" width="333.4000000000001" height="192" rx="0" ry="0" fill="var(--_group-fill)" stroke="var(--_node-stroke)" stroke-width="1" />
<rect x="60" y="504" width="333.4000000000001" height="28" rx="0" ry="0" fill="var(--_group-hdr)" stroke="var(--_node-stroke)" stroke-width="1" />
<text x="72" y="518" dy="0.35em" font-size="12" font-weight="600" fill="var(--_text-sec)">&quot;ZONE A: Receiving&quot;</text>
<rect x="413.40000000000015" y="76" width="825.6999999999999" height="620" rx="0" ry="0" fill="var(--_group-fill)" stroke="var(--_node-stroke)" stroke-width="1" />
<rect x="413.40000000000015" y="76" width="825.6999999999999" height="28" rx="0" ry="0" fill="var(--_group-hdr)" stroke="var(--_node-stroke)" stroke-width="1" />
<text x="425.40000000000015" y="90" dy="0.35em" font-size="12" font-weight="600" fill="var(--_text-sec)">&quot;ZONE B: Bulk Storage&quot;</text>
<rect x="433.40000000000015" y="112" width="785.6999999999999" height="564" rx="0" ry="0" fill="var(--_group-fill)" stroke="var(--_node-stroke)" stroke-width="1" />
<rect x="433.40000000000015" y="112" width="785.6999999999999" height="28" rx="0" ry="0" fill="var(--_group-hdr)" stroke="var(--_node-stroke)" stroke-width="1" />
<text x="445.40000000000015" y="126" dy="0.35em" font-size="12" font-weight="600" fill="var(--_text-sec)">&quot;AISLE B-1&quot;</text>
<rect x="453.40000000000015" y="148" width="745.6999999999999" height="508" rx="0" ry="0" fill="var(--_group-fill)" stroke="var(--_node-stroke)" stroke-width="1" />
<rect x="453.40000000000015" y="148" width="745.6999999999999" height="28" rx="0" ry="0" fill="var(--_group-hdr)" stroke="var(--_node-stroke)" stroke-width="1" />
<text x="465.40000000000015" y="162" dy="0.35em" font-size="12" font-weight="600" fill="var(--_text-sec)">&quot;RACK B-1-R1&quot;</text>
<rect x="1259.1" y="504" width="269.0500000000002" height="192" rx="0" ry="0" fill="var(--_group-fill)" stroke="var(--_node-stroke)" stroke-width="1" />
<rect x="1259.1" y="504" width="269.0500000000002" height="28" rx="0" ry="0" fill="var(--_group-hdr)" stroke="var(--_node-stroke)" stroke-width="1" />
<text x="1271.1" y="518" dy="0.35em" font-size="12" font-weight="600" fill="var(--_text-sec)">&quot;ZONE C: Pick/Pack&quot;</text>
<rect x="1548.15" y="504" width="168.94999999999982" height="192" rx="0" ry="0" fill="var(--_group-fill)" stroke="var(--_node-stroke)" stroke-width="1" />
<rect x="1548.15" y="504" width="168.94999999999982" height="28" rx="0" ry="0" fill="var(--_group-hdr)" stroke="var(--_node-stroke)" stroke-width="1" />
<text x="1560.15" y="518" dy="0.35em" font-size="12" font-weight="600" fill="var(--_text-sec)">&quot;ZONE D: Shipping&quot;</text>
<polyline points="869.1500000000001,240 869.1500000000001,260 598.6500000000001,260 598.6500000000001,600" fill="none" stroke="var(--_line)" stroke-width="0.75" />
<polyline points="869.1500000000001,240 869.1500000000001,600" fill="none" stroke="var(--_line)" stroke-width="0.75" />
<polyline points="869.1500000000001,240 869.1500000000001,260 1096.75,260 1096.75,600" fill="none" stroke="var(--_line)" stroke-width="0.75" />
<rect x="82.00000000000003" y="600" width="289.40000000000003" height="36" rx="0" ry="0" fill="var(--_node-fill)" stroke="var(--_node-stroke)" stroke-width="0.75" />
<rect x="817.4000000000001" y="204" width="103.5" height="36" rx="0" ry="0" fill="var(--_node-fill)" stroke="var(--_node-stroke)" stroke-width="0.75" />
<rect x="475.4000000000001" y="600" width="246.50000000000003" height="36" rx="0" ry="0" fill="var(--_node-fill)" stroke="var(--_node-stroke)" stroke-width="0.75" />
<rect x="745.9000000000001" y="600" width="246.50000000000003" height="36" rx="0" ry="0" fill="var(--_node-fill)" stroke="var(--_node-stroke)" stroke-width="0.75" />
<rect x="1016.4" y="600" width="160.70000000000002" height="36" rx="0" ry="0" fill="var(--_node-fill)" stroke="var(--_node-stroke)" stroke-width="0.75" />
<rect x="1281.1" y="600" width="225.05" height="36" rx="0" ry="0" fill="var(--_node-fill)" stroke="var(--_node-stroke)" stroke-width="0.75" />
<rect x="1570.15" y="600" width="124.95" height="36" rx="0" ry="0" fill="var(--_node-fill)" stroke="var(--_node-stroke)" stroke-width="0.75" />
<text x="226.70000000000005" y="618" text-anchor="middle" dy="0.35em" font-size="13" font-weight="500" fill="var(--_text)">Receiving Dock&lt;br/&gt;temporary holding</text>
<text x="869.1500000000001" y="222" text-anchor="middle" dy="0.35em" font-size="13" font-weight="500" fill="var(--_text)">&quot;SHELF S1&quot;</text>
<text x="598.6500000000001" y="618" text-anchor="middle" dy="0.35em" font-size="13" font-weight="500" fill="var(--_text)">&quot;BIN 01&lt;br/&gt;SKU-001: 50 units&quot;</text>
<text x="869.1500000000001" y="618" text-anchor="middle" dy="0.35em" font-size="13" font-weight="500" fill="var(--_text)">&quot;BIN 02&lt;br/&gt;SKU-002: 25 units&quot;</text>
<text x="1096.75" y="618" text-anchor="middle" dy="0.35em" font-size="13" font-weight="500" fill="var(--_text)">&quot;BIN 03&lt;br/&gt;empty&quot;</text>
<text x="1393.625" y="618" text-anchor="middle" dy="0.35em" font-size="13" font-weight="500" fill="var(--_text)">Staging Area&lt;br/&gt;for orders</text>
<text x="1632.625" y="618" text-anchor="middle" dy="0.35em" font-size="13" font-weight="500" fill="var(--_text)">Outbound Dock</text>
</svg>